<svg width="500" height="500" viewBox="0 0 500 500" fill="none" xmlns="http://www.w3.org/2000/svg">
<g clip-path="url(#clip0_2_3)">
<circle cx="250" cy="250" r="250" fill="#2E2E2E"/>
<path d="M156.737 252.5C156.737 256.24 157.247 259.838 158.267 263.295C159.344 266.695 161.072 269.67 163.452 272.22C165.889 274.713 168.779 275.96 172.122 275.96C175.465 275.96 178.27 274.77 180.537 272.39C182.86 270.01 184.475 267.233 185.382 264.06C186.345 260.83 186.827 257.43 186.827 253.86C186.827 250.177 186.289 246.607 185.212 243.15C184.135 239.637 182.379 236.633 179.942 234.14C177.562 231.59 174.729 230.315 171.442 230.315C168.892 230.315 166.625 230.995 164.642 232.355C162.715 233.715 161.185 235.528 160.052 237.795C158.975 240.005 158.154 242.357 157.587 244.85C157.02 247.343 156.737 249.893 156.737 252.5ZM148.237 253.18C148.237 246.097 150.447 240.033 154.867 234.99C159.287 229.947 164.925 227.425 171.782 227.425C178.639 227.425 184.277 229.947 188.697 234.99C193.117 240.033 195.327 246.097 195.327 253.18C195.327 260.263 193.089 266.327 188.612 271.37C184.192 276.357 178.582 278.85 171.782 278.85C164.869 278.85 159.202 276.357 154.782 271.37C150.419 266.383 148.237 260.32 148.237 253.18ZM201.939 278V276.215C204.999 276.215 206.784 275.648 207.294 274.515V231.76C206.784 230.627 204.999 230.06 201.939 230.06V228.275H236.194V236.52H234.409C234.409 233.46 233.842 231.675 232.709 231.165H215.114V250.715H227.014C228.147 250.205 228.714 248.42 228.714 245.36H230.499V258.96H228.714C228.714 255.9 228.147 254.115 227.014 253.605H215.114V274.515C215.624 275.648 217.409 276.215 220.469 276.215V278H201.939ZM239.826 228.275H282.496V236.52H280.711C280.711 233.46 280.144 231.675 279.011 231.165H265.071V274.515C265.581 275.648 267.366 276.215 270.426 276.215V278H251.896V276.215C254.956 276.215 256.741 275.648 257.251 274.515V231.165H243.311C242.178 231.675 241.611 233.46 241.611 236.52H239.826V228.275ZM327.043 228.275V230.06C324.437 230.06 322.793 230.4 322.113 231.08L335.118 266.695L347.613 231.59C347.047 230.57 345.29 230.06 342.343 230.06V228.275H356.283V230.06C353.11 230.06 351.325 230.655 350.928 231.845L334.438 278H330.358L319.733 248.335L309.193 278H305.113L288.623 231.845C288.17 230.655 286.357 230.06 283.183 230.06V228.275H301.798V230.06C299.192 230.06 297.548 230.4 296.868 231.08L309.873 266.61L318.033 243.575L313.868 231.845C313.472 230.655 311.658 230.06 308.428 230.06V228.275H327.043Z" fill="white"/>
</g>
<defs>
<clipPath id="clip0_2_3">
<rect width="500" height="500" fill="white"/>
</clipPath>
</defs>
</svg>
